<?xml version="1.0" encoding="utf-8"?><!DOCTYPE svg PUBLIC "-//W3C//DTD SVG 1.1//EN" "http://www.w3.org/Graphics/SVG/1.1/DTD/svg11.dtd"><svg version="1.1" id="Contours" xmlns="http://www.w3.org/2000/svg" xmlns:xlink="http://www.w3.org/1999/xlink" x="0px" y="0px" width="2042.413330px" height="2042.413330px" viewBox="0.000000 -0.000003 2042.413330 1886.094116" enable-background="new 0 0 2042.413330 2042.413330" xml:space="preserve" stroke="black" fill="none" stroke-linecap='round' stroke-linejoin='round'><path class="selected"  fill="#000000" opacity="1.000000" stroke="none" 
 	d="
M1118.763685 1198.603939 C1109.598150 1211.891978 1093.558814 1220.146976 1077.418511 1219.883146 C1061.278207 1219.619315 1045.517242 1210.844507 1036.790902 1197.264006 C1030.436689 1187.375165 1027.823578 1175.542854 1026.516478 1163.861387 C1025.060386 1150.848383 1025.082830 1137.720641 1025.107023 1124.626448 C1025.174671 1088.013158 1025.242319 1051.399869 1025.309967 1014.786580 C1025.321692 1008.440656 1025.368340 1001.909061 1027.771622 996.035807 C1030.174905 990.162553 1035.538690 985.035127 1041.882986 984.890952 C1048.426634 984.742246 1054.133267 989.941652 1056.666506 995.976894 C1059.199744 1002.012135 1059.230111 1008.761046 1059.221632 1015.306378 C1059.156504 1065.578962 1059.091376 1115.851546 1059.026247 1166.124131 C1059.016451 1173.685694 1059.329093 1182.083445 1064.617107 1187.488466 C1066.368675 1189.278788 1068.566153 1190.597665 1070.902311 1191.500775 C1081.085614 1195.437429 1093.876662 1190.412397 1098.657411 1180.597035 C1101.608250 1174.538664 1101.630880 1167.524243 1101.593890 1160.785553 C1101.320537 1110.985911 1101.047184 1061.186268 1100.773831 1011.386626 C1100.741556 1005.506809 1100.747378 999.430414 1103.080653 994.033274 C1105.413928 988.636135 1110.730891 984.067391 1116.592975 984.524845 C1121.876190 984.937122 1126.180644 989.310746 1128.120659 994.242144 C1130.060674 999.173542 1130.098003 1004.617151 1130.109130 1009.916417 C1130.200914 1053.628314 1130.292698 1097.340207 1130.384482 1141.052100 C1130.426254 1160.945895 1130.059217 1182.227866 1118.763685 1198.603939 z"/><path class="selected"  fill="#000000" opacity="1.000000" stroke="none" 
 	d="
M591.338328 1184.303028 C587.634611 1222.449130 600.674349 1261.923841 626.371582 1290.357885 C611.611356 1295.010349 594.004978 1284.000952 591.725769 1268.693604 C574.523812 1301.081800 599.084380 1339.120880 622.388873 1367.437010 C757.986659 1532.195131 893.584444 1696.953253 1029.182229 1861.711374 C1204.529054 1648.162717 1379.875878 1434.614061 1555.222703 1221.065404 C1564.963570 1209.202349 1574.885171 1191.805339 1565.131551 1179.952767 C1553.322607 1200.952314 1530.643097 1215.431997 1506.623994 1217.306788 C1542.672650 1178.853942 1565.265583 1128.023851 1569.654659 1075.498972 C1554.004747 1098.098287 1527.878456 1113.110230 1500.472817 1115.250265 C1535.296750 1079.976769 1558.421816 1033.341330 1565.421532 984.270669 C1549.960977 1004.608725 1527.443583 1019.473899 1502.666396 1025.699355 C1535.337703 989.004279 1556.241523 941.989282 1561.600301 893.150502 C1550.394993 912.924363 1528.643192 926.293102 1505.940164 927.359433 C1533.620039 897.842705 1553.412705 860.996693 1562.739764 821.621337 C1554.506355 839.006820 1534.183339 849.780977 1515.173178 846.838550 C1539.445957 813.943678 1556.934946 776.066011 1566.231545 736.256292 C1557.122779 751.168634 1539.744786 760.641088 1522.275764 760.215854 C1546.337258 731.720801 1564.984978 698.670302 1576.934231 663.341293 C1585.070531 693.877853 1603.404201 721.603346 1628.317148 741.046235 C1615.791003 746.932972 1599.479129 743.223492 1590.730610 732.498690 C1593.051760 770.534468 1616.273973 806.636073 1649.923110 824.520249 C1628.448969 831.180962 1603.400431 824.351629 1588.278645 807.713258 C1586.982192 850.813067 1606.746531 894.056888 1640.184390 921.281580 C1622.413255 923.937624 1603.517618 917.409779 1591.175598 904.350592 C1594.447071 953.802564 1621.801031 1001.100116 1663.032716 1028.598265 C1638.612923 1039.480175 1606.613039 1028.093064 1594.556767 1004.231199 C1583.515729 1038.250071 1609.227094 1079.114478 1644.673372 1083.884122 C1630.147725 1093.583940 1608.941145 1091.632920 1596.429128 1079.445620 C1590.375347 1104.520778 1593.378530 1131.682235 1604.764121 1154.829160 C1665.747334 1106.154912 1708.607973 1035.282439 1723.393064 958.669542 C1708.942380 972.303292 1690.433370 981.580555 1670.862645 984.999342 C1693.713918 956.073351 1707.156485 919.833193 1708.696459 883.002199 C1700.818342 890.446317 1687.688291 891.534382 1678.692287 885.488594 C1697.333102 861.235583 1713.135282 820.255492 1686.220318 805.720251 C1698.380553 792.998244 1708.334447 778.172914 1715.506327 762.101670 C1731.206760 774.806114 1746.907192 787.510558 1762.607625 800.215002 C1752.938553 806.961181 1739.703999 808.234444 1728.926116 803.455416 C1742.930543 830.466853 1756.934970 857.478290 1770.939397 884.489727 C1759.709874 876.507979 1744.668169 893.697125 1749.009109 906.772550 C1753.350050 919.847974 1767.267036 926.762159 1779.881235 932.302239 C1773.028076 943.552795 1757.196434 948.250602 1745.315934 942.558983 C1746.614442 956.393766 1747.912949 970.228548 1749.211457 984.063331 C1841.449014 871.074923 1933.686572 758.086515 2025.924129 645.098107 C1922.780491 640.653911 1819.636853 636.209716 1716.493215 631.765520 C1823.159783 628.137994 1929.826352 624.510469 2036.492921 620.882943 C2049.545101 632.929703 2038.541101 654.320721 2027.284735 668.060373 C1694.655372 1074.071628 1362.026010 1480.082883 1029.396649 1886.094138 C685.493036 1467.895339 342.360044 1049.062825 -0.000000 629.599441 C118.521404 622.194177 238.396699 614.858633 355.300352 635.731990 C247.244863 638.431069 139.189374 641.130149 31.133884 643.829228 C139.457135 776.210447 247.780385 908.591667 356.103635 1040.972886 C374.947334 1032.486728 384.774613 1008.084077 377.071250 988.907058 C364.768086 992.420893 352.464922 995.934728 340.161758 999.448563 C360.633816 973.592022 372.650824 941.149458 373.962584 908.195776 C364.246054 916.027768 350.894429 919.142124 338.715475 916.417400 C365.886502 895.124543 376.324338 854.962736 362.959136 823.134732 C359.032865 831.381325 346.536439 833.807346 339.809731 827.628891 C349.506425 807.581298 359.203119 787.533705 368.899813 767.486112 C386.003445 788.930115 403.107077 810.374118 420.210710 831.818122 C408.061117 834.679618 394.365846 828.604920 388.332242 817.678053 C385.884168 851.161470 405.055476 885.237919 434.943892 900.528924 C424.597929 909.151637 407.535591 908.043167 398.392250 898.154312 C401.206962 932.340311 413.033059 965.744132 432.355318 994.085894 C421.580543 998.799252 407.841705 995.422765 400.479140 986.251934 C401.375489 1020.991023 416.452305 1055.156344 441.510734 1079.232949 C426.596755 1079.703464 411.590970 1077.030581 397.756733 1071.439333 C430.461546 1135.386585 473.892880 1193.831550 525.686938 1243.593298 C549.460576 1230.463358 563.966201 1202.263043 560.822097 1175.287206 C554.657426 1189.567821 534.450752 1195.453935 521.581416 1186.717842 C547.586452 1162.046087 562.402490 1126.005115 561.268370 1090.176759 C554.797806 1102.476418 539.582780 1109.461058 526.037666 1106.349836 C554.485556 1081.207653 568.282359 1040.548522 561.010318 1003.285548 C552.345536 1014.587120 538.223667 1021.496035 523.983061 1021.400583 C545.277456 994.492281 557.636161 960.631794 558.681724 926.332892 C548.199830 938.945094 531.321288 945.941707 514.990492 944.444091 C539.739824 915.198386 552.739024 876.280423 550.533930 838.031523 C547.990229 850.419763 533.410429 858.793063 521.428409 854.747065 C534.494864 823.941437 542.254650 790.893096 544.264170 757.491288 C538.593583 772.825370 524.498505 784.732947 508.432558 787.761973 C515.914781 748.498826 523.397004 709.235679 530.879228 669.972533 C531.958114 664.311041 534.672342 657.233115 540.434228 657.364065 C544.952191 657.466769 547.780334 662.144062 549.730642 666.220673 C566.673171 701.634900 583.615718 737.049112 600.558264 772.463324 C586.316213 764.687146 572.074164 756.910966 557.832116 749.134787 C572.094817 781.545897 586.357519 813.957008 600.620221 846.368118 C589.851240 839.919874 579.082258 833.471631 568.313276 827.023388 C581.279691 862.696493 594.246105 898.369598 607.212520 934.042704 C598.133215 929.030154 589.053911 924.017605 579.974606 919.005056 C584.423165 951.107672 595.546928 982.269949 612.432479 1009.933026 C601.691486 1007.397131 590.950493 1004.861237 580.209500 1002.325343 C589.450688 1031.616453 598.691876 1060.907563 607.933064 1090.198673 C610.455140 1098.192710 612.692377 1107.814810 607.290707 1114.224760 C601.889037 1120.634710 587.681647 1114.209847 592.248784 1107.180853 C596.597265 1139.634434 607.858406 1171.144784 625.064249 1199.003418 C612.325331 1203.326413 596.842626 1196.577842 591.338328 1184.303028 M555.626597 1245.249668 C550.073056 1249.648303 544.519514 1254.046937 538.965972 1258.445571 C538.224661 1259.032720 537.444578 1259.674639 537.162821 1260.577356 C536.687985 1262.098678 537.792583 1263.619319 538.826456 1264.832166 C543.817823 1270.687571 548.809188 1276.542978 553.800552 1282.398385 C554.979766 1283.781731 557.469338 1285.049577 558.230383 1283.398819 C558.394396 1283.043060 558.397431 1282.637081 558.397496 1282.245337 C558.399481 1270.173825 558.401467 1258.102313 558.403452 1246.030801 C558.403521 1245.613716 558.391050 1245.159704 558.126290 1244.837427 C557.528592 1244.109885 556.364700 1244.665060 555.626597 1245.249667 M377.200812 1054.104831 C378.033504 1051.149047 373.370284 1049.054824 370.999011 1051.006003 C368.627737 1052.957182 368.680131 1056.705936 369.949293 1059.502231 C371.871979 1063.738410 375.829622 1066.629110 379.621647 1069.324008 C382.032830 1067.892698 381.348833 1064.191156 379.896279 1061.792709 C378.443724 1059.394263 376.440474 1056.803784 377.200812 1054.104831 z"/><path class="selected"  fill="#000000" opacity="1.000000" stroke="none" 
 	d="
M650.884257 444.006100 C631.957975 455.078765 608.122030 454.035131 587.013467 448.099086 C565.904904 442.163041 546.304703 431.809729 525.508206 424.858916 C515.939950 421.660918 502.739245 420.597447 498.344626 429.678529 C484.884309 457.493053 456.643608 477.604012 425.956566 481.228004 C415.565128 502.760991 395.342171 519.303759 372.176716 525.220955 C349.011260 531.138152 323.332106 526.320249 303.886946 512.408482 C297.973889 508.178068 289.550196 509.247410 283.273153 512.916112 C276.996110 516.584814 272.316605 522.387200 267.516765 527.848169 C256.135804 540.796753 242.793061 552.788272 226.451704 558.279367 C210.110346 563.770461 190.259282 561.477551 178.348738 549.014363 C172.985475 543.402245 169.164690 535.851433 162.113820 532.604021 C154.684062 529.182105 146.014604 531.600086 137.844527 531.199270 C125.348047 530.586207 113.485940 522.617628 108.193446 511.280638 C102.900952 499.943648 104.409196 485.733334 111.963522 475.759870 C117.190585 468.858932 125.390092 463.029441 125.767139 454.380570 C97.195440 448.667865 78.783960 415.634294 85.333811 387.242809 C91.883662 358.851323 119.369861 337.927694 148.352409 334.929546 C177.334957 331.931398 206.543150 344.910667 227.283727 365.375404 C231.438114 369.474540 237.593756 374.183657 242.357577 370.812030 C256.521147 326.627042 302.219520 294.699483 348.580203 296.598683 C356.155401 296.909006 366.535048 295.912180 367.370858 288.376840 C370.956491 256.049986 378.559434 222.820477 398.893431 197.435232 C419.227429 172.049986 455.121852 156.817438 485.367207 168.779906 C501.529258 175.172227 514.196775 188.315962 523.811457 202.794620 C536.719130 222.232160 545.005863 244.716458 547.799660 267.881532 C569.803423 242.133378 598.300515 216.564178 632.144533 217.873941 C665.476335 219.163882 692.740996 247.432933 704.075581 278.804897 C709.254074 293.137973 713.691249 310.449066 727.869418 316.037749 C733.012863 318.065167 738.750158 318.129420 743.944661 320.022191 C757.065790 324.803259 763.578752 340.522648 762.030726 354.401634 C760.482699 368.280620 752.712447 380.613157 744.612475 391.989145 C726.659944 417.202539 699.838477 442.887281 669.418762 437.173308 C662.786244 435.927470 656.709142 440.598297 650.884256 444.006097 M486.242235 419.728454 C492.459281 404.846429 513.679756 405.045351 529.035372 409.978035 C548.064862 416.090879 565.921590 425.524365 585.071422 431.249074 C604.221254 436.973784 625.759830 438.659201 643.529693 429.509318 C651.683067 425.311063 659.947537 418.743955 668.905469 420.708216 C684.524719 424.133150 701.056442 417.620992 713.084302 407.084308 C725.112161 396.547624 733.341163 382.406790 740.668498 368.194075 C744.338206 361.076001 747.935318 353.319137 746.845877 345.385232 C745.756436 337.451327 737.857031 329.989839 730.224282 332.413651 C720.704134 335.436815 710.280267 329.445536 704.578522 321.244144 C698.876777 313.042752 696.641797 303.016255 693.653293 293.485170 C684.605466 264.629391 663.084916 235.580725 632.902716 233.695520 C600.732576 231.686148 576.014675 260.212447 555.744933 285.274232 C552.747899 288.979806 549.461939 292.852703 544.908785 294.260638 C540.355631 295.668573 534.329365 293.285865 533.748344 288.555548 C530.527561 262.333779 526.981575 235.163162 512.971167 212.765330 C498.960758 190.367499 471.309136 174.175642 446.058287 181.944108 C436.522942 184.877674 428.198461 190.884994 420.948222 197.737924 C398.108123 219.326398 384.646301 250.515331 384.603259 281.943511 C384.593319 289.201159 385.225876 296.707495 382.644905 303.490719 C380.063933 310.273943 372.955454 316.064325 365.931617 314.236964 C319.623295 302.189106 266.583849 334.415161 255.940221 381.066254 C254.206659 388.664471 244.493743 391.951766 236.987836 389.854267 C229.481929 387.756769 223.646598 382.037122 217.750341 376.940821 C198.185460 360.030343 172.731095 347.773206 147.063351 350.922132 C121.395608 354.071058 97.386965 376.583040 99.099109 402.386477 C100.172891 418.569264 111.553329 433.602968 126.837170 439.028812 C133.112193 441.256478 140.105457 442.080519 145.372035 446.155020 C150.638613 450.229522 152.659638 459.500543 147.074553 463.126177 C138.902747 468.431015 130.457672 474.010957 125.383810 482.328145 C120.309947 490.645333 119.686356 502.539413 126.634030 509.369459 C138.883564 521.411598 162.095095 509.321693 175.748587 519.745050 C182.250593 524.708814 184.623945 533.500602 190.460237 539.232332 C198.208850 546.842123 210.800619 547.522655 220.990256 543.764836 C231.179894 540.007017 239.535306 532.604985 247.629185 525.363504 C260.507352 513.841585 273.385519 502.319667 286.263686 490.797750 C292.873439 484.884095 302.734906 491.718166 309.737650 497.160750 C324.112487 508.332990 342.789066 514.182467 360.866004 512.019329 C378.942942 509.856191 396.092624 499.371119 405.281504 483.654270 C408.837301 477.572360 411.525849 470.462660 417.474108 466.687541 C421.952069 463.845561 427.484112 463.439380 432.708019 462.522988 C456.178493 458.405736 477.056893 441.715824 486.242235 419.728454 z"/><path class="selected"  fill="#000000" opacity="1.000000" stroke="none" 
 	d="
M782.002788 12.781486 C786.015825 7.894700 790.695775 3.238197 796.640892 1.083962 C802.586010 -1.070272 810.042107 -0.105548 814.024053 4.806606 C823.186340 16.109261 828.985094 30.104498 830.501629 44.575075 C830.933795 48.698749 837.357911 46.977707 840.508797 44.282643 C854.832852 32.030775 871.624340 22.088164 890.130675 18.510126 C916.697789 13.373607 945.599406 22.547376 964.340818 42.065440 C983.082230 61.583504 991.075541 90.833606 984.865095 117.170380 C983.571287 122.657059 991.354490 124.983342 996.818293 126.370581 C1010.983141 129.966976 1020.907969 144.395759 1021.453814 158.999834 C1021.999659 173.603910 1014.312550 187.738013 1003.219818 197.252647 C992.127086 206.767282 977.964466 212.091161 963.628271 214.928499 C937.456627 220.108241 909.776961 217.403456 885.103127 207.255227 C882.540739 206.201329 879.760452 207.955133 877.519727 209.584759 C854.333322 226.447697 826.658911 239.437976 798.045552 237.636939 C769.432192 235.835902 740.715180 215.630458 736.558658 187.263375 C736.069803 183.927074 736.502423 179.600630 739.698884 178.527075 C736.352895 174.032521 730.097681 173.227843 724.591672 172.188358 C714.872845 170.353536 705.244441 166.476578 698.324487 159.410010 C691.404532 152.343442 687.655522 141.701739 690.513197 132.233062 C693.924367 120.930426 705.470326 113.997781 716.868323 110.920231 C728.266320 107.842682 740.322546 107.514341 751.532391 103.809612 C755.860608 102.379185 760.796247 99.140076 760.053768 94.642486 C755.310412 65.909426 763.520987 35.287290 782.002789 12.781487 M810.035410 25.583843 C808.801862 19.701253 800.782639 17.487797 795.383628 20.129235 C789.984618 22.770673 786.833518 28.457293 784.449049 33.974612 C775.320566 55.096623 772.532461 78.911390 776.535259 101.570738 C777.881684 109.192689 769.101148 114.351157 761.730402 116.713168 C747.959080 121.126288 733.785799 124.284219 719.443574 126.135040 C713.412983 126.913269 708.128944 131.780215 706.858591 137.726633 C705.588239 143.673050 708.422293 150.274291 713.608450 153.448791 C719.909895 157.305971 727.919260 155.972213 735.283725 156.564411 C742.234643 157.123355 749.401714 159.834697 753.474660 165.494977 C757.547607 171.155256 757.330707 180.097270 751.775232 184.312048 C754.859549 204.976852 775.257607 219.956182 796.036278 222.145664 C816.814950 224.335145 837.409439 216.143894 855.177709 205.151368 C868.409237 196.965546 884.542788 186.820346 898.163338 194.341093 C914.732883 203.490167 934.944177 202.178259 953.680155 199.491537 C964.445709 197.947767 975.360180 195.967327 984.985490 190.904343 C994.610799 185.841358 1002.896683 177.199734 1005.041101 166.537565 C1007.185519 155.875395 1001.732358 143.479400 991.460944 139.904703 C982.247667 136.698264 969.456918 139.642233 964.579944 131.193514 C960.447263 124.034186 966.219854 115.542689 969.294396 107.869214 C976.696292 89.395481 967.288228 67.905034 953.075742 53.974057 C939.764281 40.926259 921.632680 32.152248 902.999501 32.646863 C876.698975 33.345007 854.502178 51.420647 834.560513 68.582669 C830.770950 71.844010 824.523223 70.202113 821.206317 66.461089 C817.889410 62.720066 816.746222 57.586634 815.720126 52.693347 C813.825221 43.656845 811.930315 34.620344 810.035410 25.583843 z"/><path class="selected"  fill="#000000" opacity="1.000000" stroke="none" 
 	d="
M1195.695204 1017.019140 C1195.377431 1037.296049 1195.059658 1057.572958 1194.741885 1077.849867 C1194.700407 1080.496504 1195.038228 1083.760074 1197.480975 1084.779583 C1200.589306 1086.076879 1203.400033 1082.478042 1204.866767 1079.445982 C1217.209785 1053.930248 1229.552804 1028.414515 1241.895823 1002.898783 C1244.420208 997.680325 1247.131508 992.235783 1251.864327 988.888359 C1256.597145 985.540935 1263.997056 985.202210 1267.608036 989.737146 C1271.786900 994.985273 1268.703427 1002.651194 1265.513295 1008.552787 C1255.676676 1026.750064 1245.840058 1044.947340 1236.003440 1063.144617 C1232.618095 1069.407344 1234.706798 1077.093270 1236.862962 1083.878051 C1247.734669 1118.087945 1258.606377 1152.297839 1269.478084 1186.507733 C1271.545783 1193.014143 1273.637723 1199.844893 1272.403016 1206.559374 C1271.168309 1213.273854 1265.406606 1219.687593 1258.601233 1219.143860 C1250.327864 1218.482839 1246.139654 1209.088502 1243.680971 1201.161305 C1234.637503 1172.003684 1225.594034 1142.846065 1216.550566 1113.688445 C1215.495492 1110.286712 1210.250679 1112.229938 1207.968305 1114.964118 C1191.480027 1134.716359 1195.108318 1163.553238 1195.582337 1189.278509 C1195.705091 1195.940453 1195.497596 1202.855398 1192.579635 1208.845563 C1189.661673 1214.835727 1183.324673 1219.647126 1176.720688 1218.761717 C1170.934417 1217.985941 1166.387966 1213.066790 1164.333465 1207.602197 C1162.278965 1202.137603 1162.251492 1196.151522 1162.249645 1190.313479 C1162.230965 1131.282633 1162.212285 1072.251788 1162.193605 1013.220942 C1162.191808 1007.544857 1162.212639 1001.733340 1164.148321 996.397509 C1166.084003 991.061678 1170.352812 986.207098 1175.939393 985.203072 C1183.013545 983.931698 1189.934347 989.279109 1192.900530 995.825999 C1195.866714 1002.372890 1195.807830 1009.832532 1195.695204 1017.019140 z"/><path class="selected"  fill="#000000" opacity="1.000000" stroke="none" 
 	d="
M779.817947 1157.006912 C783.027268 1160.000240 787.073761 1154.276168 787.730172 1149.936942 C794.980209 1102.010177 801.884760 1054.031149 808.443106 1006.004845 C809.768299 996.300546 817.637193 987.836839 827.219388 985.809255 C836.801583 983.781671 847.424353 988.332559 852.566805 996.668310 C857.208469 1004.192300 857.341124 1013.551967 857.334138 1022.392523 C857.288426 1080.233881 857.242715 1138.075238 857.197004 1195.916596 C857.190105 1204.645837 855.742003 1215.520781 847.480817 1218.340799 C841.148853 1220.502264 834.093714 1216.019812 831.046260 1210.063409 C827.998807 1204.107007 827.950157 1197.122859 827.968287 1190.432166 C828.103503 1140.532767 828.238719 1090.633369 828.373936 1040.733972 C828.380161 1038.436622 828.303829 1035.910374 826.771739 1034.198488 C825.239650 1032.486601 821.722807 1032.649195 821.236390 1034.894469 C813.402900 1087.330458 805.569416 1139.766445 797.735932 1192.202433 C796.922337 1197.648501 796.048451 1203.264318 793.153491 1207.948420 C790.258530 1212.632521 784.780793 1216.179261 779.382562 1215.092662 C771.253685 1213.456417 768.411315 1203.491489 767.159259 1195.294643 C759.207186 1143.234767 751.255114 1091.174891 743.303041 1039.115014 C742.852189 1036.163421 738.235971 1035.777147 736.213208 1037.973416 C734.190445 1040.169685 734.089445 1043.465115 734.102213 1046.450916 C734.319208 1097.194790 734.536203 1147.938665 734.753198 1198.682539 C734.784437 1205.987752 733.843919 1214.898085 727.180595 1217.892615 C721.424227 1220.479555 714.424561 1216.560742 711.402083 1211.020646 C708.379605 1205.480550 708.296503 1198.867484 708.286890 1192.556546 C708.204497 1138.468412 708.122104 1084.380279 708.039712 1030.292146 C708.017285 1015.569525 709.056106 998.597632 720.838056 989.769169 C727.435916 984.825254 736.691844 983.683939 744.293047 986.877018 C751.894251 990.070097 757.558446 997.478991 758.646405 1005.651530 C765.368867 1056.149390 772.426255 1106.602664 779.817947 1157.006912 z"/><path class="selected"  fill="#000000" opacity="1.000000" stroke="none" 
 	d="
M1349.689839 245.536037 C1356.778137 229.074824 1366.819232 213.437807 1381.188689 202.726401 C1395.558145 192.014994 1414.721792 186.810008 1431.895558 191.936143 C1451.793919 197.875531 1465.393044 215.833540 1476.780448 233.198681 C1479.922798 237.990586 1486.936753 243.107052 1490.280616 238.453527 C1504.682874 218.410451 1524.925773 202.147573 1548.480493 194.777022 C1572.035213 187.406471 1598.896080 189.532621 1619.816031 202.628633 C1633.006428 210.885899 1643.889719 224.019115 1646.116606 239.420739 C1648.717442 257.408679 1639.404082 274.955575 1628.532671 289.520695 C1637.144066 294.625035 1645.914919 299.860492 1652.471902 307.424643 C1659.028885 314.988795 1663.107206 325.423439 1660.626590 335.121736 C1657.957051 345.558657 1648.591869 352.776936 1639.352330 358.316491 C1595.004413 384.905231 1539.135278 391.443217 1489.846660 375.812126 C1469.148806 369.248135 1445.987973 359.142283 1427.030952 369.730885 C1404.797265 382.149697 1379.932488 392.063513 1354.546049 390.040544 C1329.159609 388.017575 1303.595348 371.179051 1298.350484 346.258074 C1263.071862 364.695692 1223.985163 383.702605 1185.123114 375.084717 C1168.584045 371.417081 1151.104543 359.164186 1151.951439 342.244520 C1152.427636 332.730829 1158.657169 324.540678 1165.209988 317.627094 C1170.367090 312.186070 1175.899066 307.100420 1181.753703 302.418147 C1189.030950 296.598134 1197.794042 288.432770 1194.441107 279.738593 C1187.011782 260.474328 1190.574218 236.496541 1205.808820 222.560486 C1221.043422 208.624430 1247.871567 208.295595 1261.298758 223.980534 C1265.244783 228.590071 1270.834802 234.963302 1275.909878 231.637260 C1287.052669 224.334608 1301.575016 223.670742 1314.432985 227.158299 C1327.290955 230.645856 1338.794495 237.869099 1349.689839 245.536036 M1263.704745 256.473505 C1261.263583 259.089805 1256.555675 256.977403 1255.024591 253.743199 C1253.493508 250.508995 1253.853486 246.735119 1253.210013 243.215142 C1251.391092 233.265111 1240.809831 226.215060 1230.733665 227.099620 C1220.657499 227.984179 1211.915929 235.780078 1208.516423 245.306616 C1205.116917 254.833154 1206.596127 265.666360 1211.092385 274.727002 C1216.668191 285.963100 1209.232651 299.519925 1199.790927 307.777853 C1190.349203 316.035780 1178.557203 321.934157 1171.397511 332.233590 C1166.440973 339.363720 1169.973241 349.917539 1176.908170 355.143701 C1183.843099 360.369864 1193.020455 361.444134 1201.704056 361.477032 C1226.469043 361.570856 1251.220690 354.538445 1272.236753 341.437359 C1278.830975 337.326623 1285.317388 332.527339 1292.952450 331.082435 C1300.587512 329.637531 1309.848600 332.900810 1312.103581 340.337004 C1317.712095 358.832065 1335.078617 373.165469 1354.301635 375.165036 C1374.104240 377.224890 1392.915559 367.394706 1411.070408 359.222337 C1429.225256 351.049968 1450.351891 344.304188 1468.584912 352.300631 C1517.583622 373.789958 1575.875659 372.939138 1624.226321 350.028916 C1634.106148 345.347511 1644.944996 337.357836 1643.923051 326.472885 C1642.442162 310.699615 1619.383538 307.882376 1610.613197 294.688809 C1609.611256 293.181550 1608.837349 291.090638 1609.947350 289.661088 C1616.343222 281.423964 1622.815948 273.056191 1626.784630 263.412179 C1630.753312 253.768168 1631.975376 242.520316 1627.731563 232.994171 C1625.600598 228.210766 1622.197620 224.074690 1618.308950 220.567523 C1599.921622 203.984113 1571.437098 202.231897 1548.402162 211.314575 C1525.367226 220.397254 1507.084625 238.635669 1492.209133 258.430190 C1488.683415 263.121793 1481.180919 262.947208 1476.299842 259.688846 C1471.418766 256.430484 1468.499981 251.022783 1465.665092 245.884181 C1459.095437 233.975829 1451.719344 222.092476 1440.927646 213.815493 C1430.135947 205.538509 1415.189048 201.469811 1402.639083 206.710763 C1394.937523 209.926988 1388.955738 216.194316 1383.646786 222.634281 C1374.415636 233.832027 1366.472337 246.090587 1360.023452 259.091183 C1358.219344 262.728167 1356.380021 266.603992 1353.009987 268.867911 C1349.639953 271.131831 1344.215386 270.876692 1342.348267 267.271650 C1335.226456 253.520801 1321.166932 243.595979 1305.825204 241.489484 C1290.483477 239.382990 1274.269239 245.151077 1263.704745 256.473505 z"/><path class="selected"  fill="#000000" opacity="1.000000" stroke="none" 
 	d="
M925.027147 1263.779639 C933.769341 1265.637412 943.372942 1268.602711 947.700361 1276.422603 C949.265272 1279.250484 949.966849 1282.461455 950.649372 1285.620573 C951.168061 1288.021366 951.687519 1290.426741 951.970597 1292.866559 C953.148078 1303.015137 950.001594 1313.594161 943.469230 1321.449625 C941.740849 1323.528082 939.727227 1325.532027 939.006682 1328.137425 C938.286137 1330.742822 939.562048 1334.147860 942.238513 1334.527094 C945.460685 1334.983650 947.238727 1338.441793 948.324244 1341.509770 C953.466963 1356.044568 955.053552 1371.823322 952.907540 1387.091017 C952.195766 1392.154898 944.271417 1392.867672 940.804040 1389.109107 C937.336663 1385.350543 937.177089 1379.701328 937.213666 1374.587799 C937.267715 1367.031798 937.321763 1359.475797 937.375812 1351.919795 C937.405132 1347.820819 937.310822 1343.352526 934.713193 1340.181596 C931.397678 1336.134342 925.432277 1335.809790 920.200366 1335.813408 C915.040329 1335.816975 908.116293 1337.472271 908.168577 1342.632044 C908.296451 1355.251699 908.424326 1367.871355 908.552201 1380.491010 C908.584951 1383.723099 908.442475 1387.376983 906.039487 1389.538722 C902.779351 1392.471556 897.168788 1390.557218 894.776631 1386.881952 C892.384473 1383.206686 892.299426 1378.544356 892.292729 1374.159158 C892.246861 1344.122935 892.200992 1314.086711 892.155124 1284.050488 C892.148528 1279.731284 892.184259 1275.225566 894.141703 1271.375374 C896.734524 1266.275425 902.355353 1263.251753 908.014059 1262.408395 C913.672764 1261.565038 919.430906 1262.590403 925.027147 1263.779640 M936.292289 1284.468386 C934.771400 1279.996627 930.459924 1276.910631 925.895267 1275.696695 C921.330611 1274.482760 916.504643 1274.861953 911.818402 1275.452612 C909.089837 1275.796523 908.396487 1279.386850 908.394105 1282.137002 C908.383274 1294.644829 908.372442 1307.152656 908.361611 1319.660484 C908.359638 1321.939253 910.369443 1323.822531 912.562666 1324.441049 C914.755888 1325.059568 917.091846 1324.701706 919.339403 1324.325834 C925.196143 1323.346377 931.673322 1321.873360 934.981828 1316.942384 C937.526405 1313.149972 937.513573 1308.255812 937.410041 1303.690010 C937.315145 1299.505068 937.220250 1295.320128 937.125355 1291.135187 C937.074374 1288.886921 937.016407 1286.597459 936.292289 1284.468386 z"/><path class="selected"  fill="#000000" opacity="1.000000" stroke="none" 
 	d="
M972.609143 1367.385418 C969.621055 1339.551402 969.999194 1311.357579 973.732700 1283.613713 C974.110764 1280.804298 974.532276 1277.965209 975.619947 1275.347439 C978.290538 1268.919957 984.671335 1264.679081 991.317955 1262.613403 C1004.630347 1258.476099 1021.478946 1263.361491 1026.994341 1276.164514 C1028.716983 1280.163322 1029.240640 1284.561294 1029.674848 1288.893664 C1032.431728 1316.400819 1032.328605 1344.193762 1029.367677 1371.679701 C1027.983095 1384.532616 1016.706772 1395.615368 1003.831812 1396.777214 C990.956852 1397.939061 977.878626 1389.054082 974.215435 1376.656683 C973.325395 1373.644504 972.944407 1370.508396 972.609143 1367.385418 M1014.293532 1280.533030 C1012.498556 1275.650537 1007.709962 1272.014256 1002.524793 1271.596285 C997.339623 1271.178315 992.030410 1274.000622 989.476547 1278.532560 C987.170276 1282.625134 987.114021 1287.561922 987.117293 1292.259585 C987.134514 1316.978372 987.151734 1341.697160 987.168954 1366.415947 C987.171641 1370.273194 987.202386 1374.266565 988.796790 1377.778864 C990.818251 1382.231926 995.405236 1385.405701 1000.285031 1385.727678 C1005.164826 1386.049656 1010.129051 1383.506088 1012.718083 1379.357234 C1015.399466 1375.060394 1015.478020 1369.692918 1015.474359 1364.628076 C1015.456390 1339.770664 1015.438423 1314.913253 1015.420456 1290.055842 C1015.418133 1286.841801 1015.402555 1283.549673 1014.293531 1280.533031 z"/><path class="selected"  fill="#000000" opacity="1.000000" stroke="none" 
 	d="
M873.680952 1282.579255 C876.835465 1291.951103 879.942208 1302.474166 875.691055 1311.402221 C874.164823 1314.607538 874.281097 1318.336637 873.300717 1321.748717 C871.501582 1328.010366 866.013444 1332.756340 859.866786 1334.915907 C853.720127 1337.075473 846.986725 1336.947258 840.548458 1335.950335 C837.767174 1335.519672 835.098980 1337.643487 833.956226 1340.215475 C832.813473 1342.787463 832.842175 1345.705769 832.890937 1348.519775 C833.071657 1358.948485 833.252373 1369.377195 833.433089 1379.805904 C833.501605 1383.759766 833.191746 1388.447819 829.824721 1390.521672 C826.379373 1392.643766 821.594139 1390.422580 819.539504 1386.936581 C817.484869 1383.450583 817.417826 1379.185669 817.407712 1375.139238 C817.331975 1344.837805 817.256238 1314.536373 817.180501 1284.234940 C817.171117 1280.480548 817.180775 1276.620323 818.561575 1273.129057 C821.323714 1266.145161 829.143825 1262.206121 836.646613 1261.870888 C844.149402 1261.535656 851.446834 1264.124918 858.447906 1266.843227 C862.291798 1268.335697 866.262894 1269.979390 868.995315 1273.067569 C871.354089 1275.733453 872.545412 1279.205637 873.680953 1282.579254 M845.211751 1275.280970 C843.040704 1275.258003 840.869658 1275.235036 838.698611 1275.212069 C837.601935 1275.200468 836.449671 1275.202072 835.487981 1275.729315 C833.482699 1276.828703 833.232021 1279.557625 833.228492 1281.844499 C833.209689 1294.031770 833.190884 1306.219041 833.172080 1318.406311 C833.169030 1320.382719 833.351382 1322.712524 835.032049 1323.752503 C835.954756 1324.323462 837.104809 1324.335531 838.189868 1324.330221 C842.708765 1324.308104 847.227661 1324.285987 851.746558 1324.263871 C853.708282 1324.254270 855.752902 1324.225501 857.500272 1323.333786 C861.589475 1321.246991 862.151761 1315.736616 862.179827 1311.145810 C862.232876 1302.468482 862.285926 1293.791154 862.338975 1285.113826 C862.361454 1281.436930 859.442632 1278.259138 856.059025 1276.819944 C852.675419 1275.380750 848.888510 1275.319865 845.211751 1275.280970 z"/><path class="selected"  fill="#000000" opacity="1.000000" stroke="none" 
 	d="
M969.975646 1169.483682 C956.288145 1169.235384 942.600644 1168.987087 928.913144 1168.738790 C921.536117 1168.604967 916.313311 1176.304958 915.072975 1183.578197 C913.832639 1190.851436 915.064614 1198.433318 913.336995 1205.606447 C911.609376 1212.779575 905.108753 1219.856819 897.909063 1218.243467 C893.165940 1217.180601 889.861911 1212.595120 888.826744 1207.845872 C887.791578 1203.096624 888.582785 1198.162265 889.376253 1193.366711 C898.760678 1136.649288 908.145101 1079.931867 917.529525 1023.214447 C918.963517 1014.547709 920.471926 1005.667298 924.862928 998.058898 C929.253931 990.450497 937.212560 984.264179 945.992908 984.536489 C954.391750 984.796964 961.722656 990.904171 965.812119 998.244790 C969.901581 1005.585409 971.340977 1014.062452 972.716529 1022.351978 C982.064114 1078.683612 991.411699 1135.015243 1000.759285 1191.346874 C1001.615842 1196.508767 1002.470566 1201.814960 1001.392262 1206.935125 C1000.313958 1212.055290 996.847806 1217.021550 991.774403 1218.301942 C985.921140 1219.779150 979.782949 1215.863421 976.728862 1210.656178 C973.674776 1205.448934 972.997993 1199.231962 972.387812 1193.226090 C971.583757 1185.311953 970.779701 1177.397818 969.975646 1169.483682 M959.613177 1143.313949 C964.023384 1143.298653 964.885203 1137.060868 964.260591 1132.695090 C961.238081 1111.569094 958.215574 1090.443099 955.193067 1069.317104 C953.454147 1057.162813 951.714373 1045.003370 949.416989 1032.942165 C948.943650 1030.457149 948.446699 1027.976631 947.926226 1025.501059 C947.527437 1023.604260 947.062159 1021.607544 945.725748 1020.203663 C944.389337 1018.799781 941.879012 1018.326861 940.558859 1019.746042 C939.831793 1020.527646 939.638698 1021.651401 939.477531 1022.706651 C938.396521 1029.784622 937.315512 1036.862593 936.234502 1043.940564 C934.931367 1052.472912 933.628217 1061.005358 932.389337 1069.547273 C930.107818 1085.278047 928.044354 1101.040447 926.199738 1116.828416 C925.404486 1123.634943 924.605538 1130.602632 921.582619 1136.752688 C920.602220 1138.747284 921.948390 1141.255965 923.894224 1142.329893 C925.840058 1143.403821 928.173204 1143.422990 930.395710 1143.415282 C940.134866 1143.381504 949.874021 1143.347727 959.613177 1143.313949 z"/><path class="selected"  fill="#000000" opacity="1.000000" stroke="none" 
 	d="
M1101.191276 1375.822943 C1101.172542 1344.967672 1101.153808 1314.112400 1101.135074 1283.257129 C1101.132298 1278.685862 1101.198754 1273.853497 1103.568663 1269.944531 C1108.179221 1262.339801 1118.803121 1261.776346 1127.690657 1262.093947 C1132.006086 1262.248163 1136.321514 1262.402377 1140.636943 1262.556592 C1144.619117 1262.698898 1149.033152 1263.025841 1151.782617 1265.910007 C1154.532082 1268.794173 1153.372473 1274.988838 1149.388021 1275.034816 C1140.476810 1275.137646 1131.565600 1275.240476 1122.654389 1275.343306 C1121.011909 1275.362259 1119.153780 1275.477229 1118.091074 1276.729729 C1117.219243 1277.757264 1117.173817 1279.228637 1117.171612 1280.576195 C1117.152641 1292.169182 1117.133671 1303.762169 1117.114700 1315.355156 C1117.109822 1318.336210 1118.671931 1322.538774 1121.480708 1321.540034 C1129.976960 1318.518933 1139.825371 1319.581501 1147.481687 1324.345336 C1143.172532 1332.161623 1132.751391 1335.954289 1124.426348 1332.736088 C1122.027598 1331.808806 1119.256498 1333.489699 1118.071221 1335.772017 C1116.885944 1338.054335 1116.879348 1340.744168 1116.899667 1343.315830 C1116.991607 1354.952336 1117.083547 1366.588841 1117.175487 1378.225347 C1117.184607 1379.379579 1117.254565 1380.676891 1118.110833 1381.450931 C1118.856524 1382.125013 1119.958243 1382.175177 1120.963351 1382.189275 C1130.560074 1382.323878 1140.156796 1382.458481 1149.753519 1382.593084 C1153.472671 1382.645249 1154.534594 1388.434916 1151.955308 1391.114860 C1149.376023 1393.794804 1145.253414 1394.077677 1141.535591 1394.189957 C1136.395872 1394.345178 1131.256154 1394.500399 1126.116436 1394.655620 C1117.384367 1394.919331 1106.749265 1394.117344 1102.831307 1386.309132 C1101.229324 1383.116490 1101.193444 1379.394960 1101.191275 1375.822943 z"/><path class="selected"  fill="#000000" opacity="1.000000" stroke="none" 
 	d="
M1056.516343 1397.096571 C1052.421100 1396.777333 1048.677020 1393.725730 1047.538314 1389.779050 C1051.347083 1383.459094 1062.318704 1384.302298 1065.379601 1377.588173 C1066.247319 1375.684835 1066.260537 1373.518042 1066.258309 1371.426240 C1066.225462 1340.575993 1066.192616 1309.725746 1066.159770 1278.875499 C1066.154809 1274.215754 1066.781345 1268.526449 1071.047994 1266.653228 C1074.687590 1265.055307 1079.077795 1267.524856 1080.992440 1271.008267 C1082.907085 1274.491677 1082.987793 1278.653532 1083.021965 1282.628307 C1083.171840 1300.061472 1083.321715 1317.494637 1083.471590 1334.927802 C1083.596455 1349.451875 1083.689993 1364.216929 1079.662878 1378.172095 C1076.723942 1388.356388 1067.081541 1396.239962 1056.516343 1397.096571 z"/><path class="selected"  fill="#000000" opacity="1.000000" stroke="none" 
 	d="
M1252.954044 1262.320425 C1262.656384 1262.261045 1272.358724 1262.201666 1282.061063 1262.142286 C1289.197251 1262.098612 1298.460156 1263.725883 1299.629479 1270.765752 C1298.814565 1275.271603 1292.572870 1275.641800 1288.028283 1275.081889 C1283.483695 1274.521978 1277.117581 1275.682649 1277.124820 1280.261592 C1277.177038 1313.293094 1277.229257 1346.324596 1277.281475 1379.356098 C1277.288253 1383.643792 1276.776084 1388.820636 1272.932458 1390.720874 C1269.425551 1392.454644 1265.004366 1390.094581 1263.106937 1386.673453 C1261.209508 1383.252324 1261.167536 1379.145540 1261.173284 1375.233466 C1261.218317 1344.584680 1261.263349 1313.935894 1261.308381 1283.287108 C1261.314268 1279.280659 1259.473061 1273.693946 1255.586637 1274.667279 C1252.594141 1275.416737 1249.474444 1276.169828 1246.457273 1275.526880 C1243.440101 1274.883932 1240.576632 1272.394065 1240.592734 1269.309191 C1240.620307 1264.026779 1247.671659 1262.352754 1252.954044 1262.320425 z"/><path class="selected"  fill="#000000" opacity="1.000000" stroke="none" 
 	d="
M999.938325 825.130510 C1006.055516 825.164831 1013.955775 826.821606 1014.777123 832.883503 C1012.074786 838.398635 1001.423615 832.064302 998.047061 837.194428 C997.199216 838.482588 997.171719 840.124586 997.172599 841.666728 C997.188172 868.974465 997.203744 896.282201 997.219316 923.589938 C997.221748 927.855129 996.133170 933.437401 991.896815 933.932542 C989.437783 934.219954 987.140344 932.336585 986.130186 930.076270 C985.120028 927.815954 985.107616 925.254024 985.112586 922.778258 C985.168780 894.786070 985.224973 866.793884 985.281167 838.801699 C985.287636 835.579513 980.846773 834.625951 977.661591 835.112926 C974.476410 835.599902 970.365879 836.064708 968.848052 833.222398 C967.730230 831.129145 969.029394 828.400801 971.040032 827.140416 C973.050670 825.880030 975.535209 825.710774 977.905504 825.597027 C985.243857 825.244871 992.591643 825.089291 999.938325 825.130510 z"/><path class="selected"  fill="#000000" opacity="1.000000" stroke="none" 
 	d="
M1076.435419 933.434032 C1071.557786 933.316215 1070.100665 926.799023 1070.120659 921.920009 C1070.169284 910.054206 1070.217910 898.188403 1070.266535 886.322600 C1070.279271 883.214643 1066.144731 882.168566 1063.036757 882.160766 C1058.592724 882.149614 1054.148356 882.272505 1049.711729 882.529216 C1048.508780 882.598820 1047.204658 882.719741 1046.317458 883.535099 C1045.229902 884.534588 1045.157243 886.196491 1045.161124 887.673564 C1045.191648 899.288950 1045.222171 910.904336 1045.252694 922.519722 C1045.264266 926.923618 1044.263589 932.621422 1039.925302 933.378850 C1037.222078 933.850810 1034.582625 931.824857 1033.427271 929.335817 C1032.271917 926.846777 1032.255515 924.000873 1032.260385 921.256764 C1032.308173 894.326907 1032.355962 867.397051 1032.403750 840.467195 C1032.411580 836.055147 1033.448490 830.345421 1037.801474 829.625870 C1040.501995 829.179472 1043.117161 831.221124 1044.250657 833.712563 C1045.384154 836.204003 1045.380179 839.042532 1045.355778 841.779591 C1045.273969 850.956417 1045.192160 860.133243 1045.110351 869.310069 C1045.100346 870.432363 1045.145020 871.691501 1045.956582 872.466751 C1046.703155 873.179921 1047.842853 873.232488 1048.875258 873.243603 C1054.224744 873.301197 1059.574230 873.358791 1064.923717 873.416385 C1067.237930 873.441301 1070.358944 872.719388 1070.334075 870.405173 C1070.231755 860.884509 1070.129437 851.363846 1070.027118 841.843183 C1069.997316 839.070167 1069.989239 836.190421 1071.154159 833.673784 C1072.319080 831.157147 1075.020771 829.121721 1077.741108 829.660490 C1081.907410 830.485635 1082.891061 835.916397 1082.945497 840.163275 C1083.294636 867.402247 1083.358232 894.644876 1083.136269 921.885179 C1083.095639 926.871466 1081.420417 933.554442 1076.435419 933.434032 z"/><path class="selected"  fill="#000000" opacity="1.000000" stroke="none" 
 	d="
M1175.273934 1375.016213 C1171.013568 1352.921874 1171.796077 1330.205748 1172.595125 1307.718596 C1172.966160 1297.276762 1173.381803 1286.608047 1177.146788 1276.861538 C1180.896450 1267.154695 1191.459960 1260.717647 1201.850159 1261.289073 C1212.240358 1261.860500 1221.823903 1269.081358 1225.770777 1278.709698 C1228.439210 1285.219299 1228.664639 1292.697519 1226.393155 1299.356032 C1225.250212 1302.706398 1220.182995 1303.136364 1217.519402 1300.804723 C1214.855809 1298.473083 1214.155793 1294.620186 1214.128374 1291.080339 C1214.100956 1287.540491 1214.569506 1283.917684 1213.588478 1280.516381 C1212.165437 1275.582580 1207.502905 1271.759050 1202.385962 1271.329708 C1197.269019 1270.900366 1192.034531 1273.893476 1189.809223 1278.521159 C1188.152037 1281.967392 1188.123164 1285.941398 1188.126730 1289.765371 C1188.152749 1317.667903 1188.178768 1345.570435 1188.204788 1373.472966 C1188.211454 1380.621489 1195.203893 1386.957850 1202.318514 1386.262448 C1209.433135 1385.567045 1215.066288 1377.996624 1213.688619 1370.982107 C1212.143485 1363.114920 1214.980839 1354.530677 1220.910086 1349.134002 C1225.242449 1351.107619 1227.867223 1355.798452 1228.491251 1360.518104 C1229.115279 1365.237757 1228.032156 1370.012630 1226.661702 1374.571839 C1225.863237 1377.228149 1224.958916 1379.867934 1223.653600 1382.315314 C1218.644108 1391.707778 1207.409977 1397.351459 1196.884222 1395.763425 C1186.358467 1394.175391 1177.289419 1385.468543 1175.273936 1375.016214 z"/><path class="selected"  fill="#000000" opacity="1.000000" stroke="none" 
 	d="
M1101.277808 836.968725 C1101.292488 832.440688 1104.888823 828.543224 1109.059241 826.779435 C1113.229659 825.015646 1117.895799 824.954158 1122.423848 824.965082 C1131.091460 824.985994 1141.642721 826.370231 1145.013227 834.355694 C1135.796701 835.498332 1126.468778 835.740603 1117.205366 835.077943 C1114.567551 834.889246 1113.583886 838.443021 1113.524272 841.086904 C1113.354805 848.602714 1113.185338 856.118525 1113.015872 863.634335 C1112.927166 867.568399 1113.260742 872.289823 1116.691632 874.216925 C1122.597386 872.527250 1129.049353 872.809806 1134.784784 875.009290 C1137.678098 876.118849 1136.901060 880.918803 1134.162888 882.369596 C1131.424715 883.820389 1128.098612 883.051682 1125.075279 882.372089 C1122.051946 881.692496 1118.581508 881.225540 1116.115330 883.101801 C1113.381237 885.181891 1113.141228 889.133722 1113.143015 892.569131 C1113.148028 902.203458 1113.153041 911.837786 1113.158054 921.472113 C1113.159590 924.423805 1114.101074 928.382511 1117.052694 928.361833 C1124.599568 928.308953 1132.146441 928.256076 1139.693313 928.203199 C1141.394287 928.191280 1143.518715 928.460781 1144.070983 930.069650 C1144.256670 930.610594 1144.208021 931.203391 1144.104521 931.765874 C1143.324982 936.002387 1139.601915 939.212773 1135.533237 940.627546 C1131.464559 942.042319 1127.052683 941.986081 1122.745652 941.913935 C1118.430174 941.841648 1113.914022 941.717965 1110.143262 939.617980 C1101.963813 935.062741 1100.995999 923.891137 1101.026352 914.528837 C1101.110171 888.675466 1101.193990 862.822096 1101.277808 836.968725 z"/><path class="selected"  fill="#000000" opacity="1.000000" stroke="none" 
 	d="
M1373.786494 1169.326899 C1363.983800 1169.190941 1354.181107 1169.054984 1344.378413 1168.919027 C1340.072441 1168.859306 1335.607356 1168.830717 1331.677091 1170.590825 C1327.746826 1172.350933 1324.507756 1176.439411 1325.172643 1180.694160 C1326.689220 1190.399047 1325.221799 1200.549524 1321.018752 1209.427543 C1319.175483 1213.321046 1316.424350 1217.271717 1312.248719 1218.330542 C1306.727334 1219.730615 1301.109212 1215.185439 1299.248080 1209.801938 C1297.386949 1204.418437 1298.288599 1198.520294 1299.210605 1192.899281 C1308.490892 1136.321951 1317.771179 1079.744622 1327.051466 1023.167293 C1328.467484 1014.534533 1329.956427 1005.690873 1334.305443 998.100371 C1338.654458 990.509870 1346.538416 984.315211 1355.284295 984.513302 C1363.736878 984.704749 1371.152655 990.820680 1375.287396 998.195416 C1379.422137 1005.570152 1380.878402 1014.100318 1382.269396 1022.439859 C1391.593243 1078.339882 1400.917090 1134.239903 1410.240936 1190.139925 C1411.197209 1195.873147 1412.146763 1201.807670 1410.698063 1207.436663 C1409.249362 1213.065656 1404.723833 1218.338016 1398.924599 1218.729394 C1393.586018 1219.089687 1388.684061 1215.219752 1386.184393 1210.488798 C1383.684725 1205.757844 1383.095451 1200.284059 1382.550372 1194.961169 C1381.888336 1188.496151 1381.226300 1182.031137 1380.564264 1175.566122 C1380.381265 1173.779069 1380.114663 1171.819814 1378.780551 1170.616821 C1377.473831 1169.438530 1375.545838 1169.351300 1373.786494 1169.326899 M1373.404679 1141.426576 C1374.847905 1139.691625 1374.600017 1137.156581 1374.273630 1134.923549 C1373.000011 1126.209889 1371.726394 1117.496230 1370.452777 1108.782571 C1367.661133 1089.683084 1364.869489 1070.583597 1362.077845 1051.484111 C1360.824160 1042.906818 1359.570003 1034.326684 1357.967862 1025.807598 C1357.272553 1022.110421 1354.392185 1017.310377 1351.081818 1019.097566 C1349.424518 1019.992301 1348.977856 1022.122920 1348.708621 1023.986976 C1345.536742 1045.947618 1342.364862 1067.908258 1339.192982 1089.868898 C1337.566027 1101.133186 1335.939072 1112.397474 1334.312117 1123.661762 C1333.576787 1128.752849 1332.841457 1133.843936 1332.106127 1138.935022 C1331.942826 1140.065642 1331.818715 1141.347425 1332.546472 1142.227958 C1333.310477 1143.152347 1334.674291 1143.231413 1335.873529 1143.236723 C1346.187966 1143.282400 1356.502403 1143.328078 1366.816840 1143.373755 C1369.187517 1143.384253 1371.888585 1143.249123 1373.404678 1141.426575 z"/><path class="selected"  fill="#000000" opacity="1.000000" stroke="none" 
 	d="
M963.321230 1725.834545 C952.011486 1729.483613 938.496071 1732.788101 929.174404 1725.417040 C921.375030 1719.249725 920.136955 1706.742631 925.737657 1698.526905 C931.338359 1690.311179 942.507342 1686.779890 952.156026 1689.181747 C944.691818 1684.400812 942.325551 1673.196642 947.219138 1665.805800 C929.883868 1652.608911 930.177930 1625.407779 940.368566 1606.151082 C942.931846 1601.307389 946.458192 1596.374860 951.752371 1594.959431 C957.046550 1593.544003 963.811749 1597.973630 962.577054 1603.312852 C961.233587 1609.122440 965.153698 1615.640367 970.915278 1617.176730 C976.676857 1618.713093 983.321827 1615.012413 985.049378 1609.305244 C986.477706 1604.586597 984.810538 1599.547529 983.158754 1594.902385 C980.981464 1588.779417 978.804175 1582.656448 976.626886 1576.533480 C974.768242 1571.306605 972.883761 1565.917853 973.124777 1560.375589 C973.365792 1554.833325 976.249590 1549.030338 981.417634 1547.013883 C986.585679 1544.997427 993.614325 1548.541708 993.710083 1554.088384 C996.035828 1522.471914 1006.664628 1491.502846 1024.244114 1465.121567 C1027.027381 1460.944759 1030.628664 1456.497014 1035.633310 1456.115160 C1041.658158 1455.655465 1046.472734 1461.586741 1047.643937 1467.514506 C1048.815140 1473.442271 1047.527663 1479.553504 1047.589335 1485.595549 C1047.721154 1498.509949 1054.139519 1510.791483 1063.099951 1520.092545 C1072.060383 1529.393608 1083.415044 1536.031033 1095.031206 1541.675842 C1116.495723 1552.106403 1130.684095 1574.345266 1135.426555 1597.733963 C1140.169016 1621.122660 1136.426469 1645.531560 1129.232870 1668.286213 C1126.589963 1676.646207 1123.113668 1685.363534 1115.973418 1690.451885 C1108.474609 1695.795757 1097.331815 1696.914951 1093.132827 1705.109926 C1103.757565 1706.681144 1109.477866 1720.345280 1105.326862 1730.250984 C1101.175858 1740.156688 1090.076667 1745.754792 1079.352517 1746.343355 C1068.628367 1746.931918 1058.137397 1743.407705 1048.095729 1739.597365 C1043.237926 1737.754058 1036.144588 1736.733191 1034.295695 1741.588871 C1030.421906 1751.762477 1021.481893 1760.160977 1010.788322 1762.199603 C1000.094751 1764.238229 988.098890 1759.178930 983.078361 1749.519595 C978.057832 1739.860260 981.404552 1726.362749 990.910532 1721.057582 C988.329920 1718.276506 983.798224 1719.227681 980.187573 1720.392646 C974.565459 1722.206616 968.943344 1724.020581 963.321230 1725.834545 M1086.026079 1608.174803 C1086.579297 1612.389890 1087.326460 1617.578214 1091.325736 1619.020018 C1097.546087 1621.262543 1102.230949 1627.273473 1102.886528 1633.853129 C1103.542107 1640.432785 1100.135401 1647.249936 1094.479832 1650.675749 C1092.524053 1651.860446 1092.783880 1654.936711 1094.208847 1656.725019 C1095.633813 1658.513327 1097.802502 1659.520801 1099.545485 1661.000864 C1105.169489 1665.776515 1104.823765 1675.868509 1098.886128 1680.248089 C1101.065692 1684.594001 1107.730579 1681.006474 1110.327853 1676.896533 C1121.525772 1659.176884 1121.792338 1636.922947 1121.706418 1615.961747 C1121.649993 1602.196187 1121.386490 1587.657679 1114.247282 1575.887991 C1104.145137 1559.233610 1083.537444 1552.929230 1067.555610 1541.793579 C1048.566263 1528.562386 1035.496367 1507.143589 1032.414863 1484.205321 C1028.493606 1483.484620 1025.534471 1487.604411 1023.834280 1491.210658 C1012.829522 1514.552675 1008.550352 1541.019280 1011.638740 1566.639903 C1012.071213 1570.227609 1007.018894 1571.806366 1003.515554 1570.920209 C1000.012213 1570.034051 996.247773 1568.098801 993.023112 1569.729821 C987.441017 1572.553221 990.624185 1580.877333 993.513612 1586.425539 C999.433526 1597.792808 1000.446505 1612.674402 992.590550 1622.800810 C984.734595 1632.927218 966.756311 1634.469025 959.676456 1623.785588 C956.702209 1619.297477 948.945625 1621.566973 946.665368 1626.444443 C944.385112 1631.321912 945.780518 1637.041663 947.211582 1642.232167 C948.291868 1646.150390 949.535252 1650.327323 952.681754 1652.900067 C955.828255 1655.472811 961.502554 1655.268496 963.111961 1651.536299 C965.770663 1645.370798 975.049718 1648.395615 980.575318 1652.210040 C986.100919 1656.024464 995.663328 1658.591628 997.840293 1652.240021 C1000.994398 1643.037469 1008.470943 1636.088312 1013.768442 1627.929155 C1019.065940 1619.769997 1021.890644 1608.228212 1015.619832 1600.790991 C1016.889358 1591.991681 1030.116142 1588.029740 1036.014056 1594.682119 C1038.955155 1597.999445 1044.945558 1594.514334 1045.593740 1590.128611 C1046.241921 1585.742888 1043.774132 1581.591767 1041.903840 1577.572225 C1040.033548 1573.552684 1038.817447 1568.443451 1041.568874 1564.967195 C1045.198224 1560.381736 1052.555039 1562.190122 1057.591617 1565.161906 C1072.914351 1574.202936 1083.710892 1590.534897 1086.026079 1608.174803 M1074.885615 1672.378598 C1078.570248 1672.193743 1082.963630 1673.240595 1085.426443 1670.493734 C1079.129285 1667.833841 1075.652488 1659.887035 1077.972708 1653.456964 C1079.274338 1649.849729 1082.020676 1646.989200 1084.174967 1643.816597 C1086.329258 1640.643994 1087.948679 1636.619751 1086.614325 1633.024493 C1085.279972 1629.429235 1079.768287 1627.630162 1077.502173 1630.723883 C1054.595031 1661.996950 1030.342196 1692.284269 1004.833274 1721.473937 C1010.823822 1725.004684 1016.814370 1728.535431 1022.804918 1732.066178 C1023.373159 1732.401091 1024.013055 1732.748776 1024.657385 1732.607701 C1025.308312 1732.465180 1025.745691 1731.871949 1026.121643 1731.321787 C1030.318707 1725.179854 1034.515772 1719.037922 1038.712838 1712.895990 C1044.259594 1704.778938 1049.806723 1696.661332 1055.202954 1688.443441 C1060.039299 1681.078197 1066.085494 1672.820092 1074.885614 1672.378597 M1057.381572 1596.663657 C1056.420592 1600.882201 1055.589720 1605.208040 1053.526746 1609.011163 C1051.463773 1612.814285 1047.889734 1616.090726 1043.587817 1616.552370 C1039.590381 1616.981340 1034.518411 1615.368849 1032.225195 1618.671072 C1031.387205 1619.877774 1031.257369 1621.417675 1030.994624 1622.863124 C1029.080014 1633.396038 1019.458032 1640.550775 1014.025019 1649.775219 C1011.468332 1654.116090 1009.844945 1658.930922 1008.239435 1663.706081 C1007.876465 1664.785636 1007.519787 1666.000986 1008.019468 1667.024463 C1008.929372 1668.888180 1011.647146 1668.562109 1013.627842 1667.947125 C1019.535565 1666.112838 1025.443289 1664.278553 1031.351012 1662.444268 C1033.222481 1661.863197 1035.132897 1661.262837 1036.711057 1660.101178 C1037.480295 1659.534953 1038.151656 1658.848276 1038.813254 1658.159345 C1046.408241 1650.250573 1053.224307 1641.594160 1059.130879 1632.355930 C1062.870050 1626.507645 1066.572004 1620.112986 1072.760936 1616.969587 C1074.576187 1611.651114 1072.518727 1605.870324 1070.481765 1600.632760 C1069.242667 1597.446715 1068.003570 1594.260671 1066.764473 1591.074626 C1065.874687 1588.786753 1062.414875 1588.595137 1060.520346 1590.156176 C1058.625817 1591.717216 1057.926807 1594.270165 1057.381572 1596.663657 M982.273707 1705.909222 C986.611032 1704.788510 990.985340 1703.662002 995.459881 1703.445514 C997.767642 1703.333861 1000.146078 1703.455354 1002.314241 1702.657046 C1004.999966 1701.668174 1006.985429 1699.413125 1008.851459 1697.243122 C1013.513752 1691.821351 1018.176046 1686.399580 1022.838339 1680.977809 C1023.406786 1680.316764 1024.014344 1679.510536 1023.816503 1678.661436 C1023.426975 1676.989661 1020.941920 1677.428864 1019.395530 1678.174008 C1014.415711 1680.573596 1009.039880 1682.017550 1003.700415 1683.448190 C995.061662 1685.762832 986.422909 1688.077473 977.784155 1690.392115 C974.378866 1691.304518 970.896082 1692.252231 968.006212 1694.271420 C965.116343 1696.290609 962.889698 1699.630904 963.182976 1703.144088 C963.476253 1706.657272 967.000728 1709.855574 970.414029 1708.973619 C974.367255 1707.952154 978.320481 1706.930688 982.273707 1705.909223 M1048.803365 1725.603964 C1049.222407 1726.202609 1049.921829 1726.530141 1050.595913 1726.812245 C1061.654943 1731.440447 1074.114198 1730.784318 1086.080132 1730.050281 C1087.033713 1729.991785 1088.031053 1729.919995 1088.844528 1729.419000 C1089.500638 1729.014922 1089.968066 1728.372064 1090.405593 1727.737771 C1091.801459 1725.714152 1093.116337 1723.461716 1093.113427 1721.003370 C1093.110517 1718.545025 1091.283794 1715.936102 1088.825448 1715.938942 C1082.168227 1715.946635 1075.510415 1715.217456 1069.012674 1713.769001 C1065.292981 1712.939820 1061.530463 1711.829292 1058.492701 1709.528061 C1058.056480 1709.197606 1057.484818 1709.703146 1057.176224 1710.155095 C1054.693735 1713.790823 1052.211246 1717.426548 1049.728756 1721.062273 C1048.798420 1722.424794 1047.857257 1724.252346 1048.803363 1725.603964 M979.311827 1666.391831 C975.560716 1664.632788 971.278957 1662.845045 967.414835 1664.339576 C962.871452 1666.096826 961.099917 1671.468156 959.884112 1676.185366 C959.464127 1677.814869 959.041977 1679.517530 959.401633 1681.161402 C959.761289 1682.805274 961.165442 1684.352500 962.846298 1684.272574 C963.624468 1680.585269 967.870126 1678.959080 971.501844 1677.952903 C977.230267 1676.365836 983.351746 1674.780603 989.017704 1676.577972 C988.984373 1671.614210 983.806083 1668.499366 979.311826 1666.391832 M1091.864173 1681.947217 C1088.668899 1682.761090 1085.473625 1683.574963 1082.278351 1684.388836 C1077.972656 1685.485546 1073.547342 1686.637570 1069.970913 1689.274032 C1068.636267 1690.257902 1069.433639 1692.606885 1070.961078 1693.252029 C1072.488516 1693.897173 1074.233185 1693.405361 1075.812672 1692.900882 C1083.701238 1690.381309 1091.527895 1687.667914 1099.283202 1684.763967 C1099.532992 1681.656724 1094.884989 1681.177780 1091.864173 1681.947215 M938.878415 1705.360318 C935.289039 1706.847426 935.928629 1712.694053 939.140764 1714.879755 C942.352899 1717.065457 946.595090 1716.688553 950.452567 1716.224893 C951.617062 1716.084926 952.883351 1715.895482 953.684726 1715.039071 C955.805722 1712.772418 952.622074 1709.459127 949.858766 1708.044749 C947.391175 1706.781730 944.866421 1705.500021 942.122775 1705.104275 C941.035882 1704.947500 939.892932 1704.939994 938.878416 1705.360317 M995.097626 1738.159825 C993.299825 1740.815364 995.073104 1744.686708 997.876946 1746.243128 C1000.680789 1747.799547 1004.074299 1747.693025 1007.277726 1747.544589 C1008.587769 1747.483886 1010.004796 1747.382602 1010.998899 1746.527233 C1012.493186 1745.241487 1012.306070 1742.740146 1011.132985 1741.155878 C1009.959899 1739.571609 1008.095123 1738.681507 1006.306757 1737.852180 C1002.598497 1736.132527 997.389170 1734.774975 995.097626 1738.159826 z"/><path class="selected"  fill="#000000" opacity="1.000000" stroke="none" 
 	d="
M858.183002 447.383382 C844.025822 465.419364 824.150440 480.646361 818.917916 502.969960 C813.522359 525.989115 825.460483 549.269473 827.389857 572.833662 C829.961554 604.242763 814.544025 634.431408 795.678211 659.674750 C764.773177 701.027129 723.295806 734.410471 676.293334 755.762474 C667.479058 724.528306 695.423080 694.244053 695.666747 661.790928 C695.968108 621.654863 643.235417 592.476373 609.390146 614.051642 C587.570724 627.960820 556.800867 610.711356 547.190141 586.686654 C537.579416 562.661952 542.727202 535.573712 548.004478 510.241861 C485.138803 579.379079 421.757987 648.987420 346.778607 704.756055 C340.381006 709.514503 332.742709 714.417890 325.007646 712.483745 C317.272582 710.549600 314.009797 697.480119 321.605505 695.055796 C363.278858 681.754905 395.197700 648.778768 425.259927 617.000716 C471.161161 568.479635 517.062394 519.958553 562.963628 471.437471 C578.736185 492.034592 597.410956 510.405957 618.263650 525.839042 C624.980431 530.810134 632.346695 535.634178 640.677609 536.284382 C648.933120 536.928702 656.904700 533.372046 664.191501 529.438709 C757.390170 479.131071 795.422406 363.829705 877.892187 297.379831 C884.478172 292.073186 895.703105 287.791043 899.995568 295.078735 C915.992876 322.238789 932.747227 350.237443 958.507391 368.403243 C984.267555 386.569042 1021.733732 392.148582 1046.660132 372.854623 C1080.872021 417.600238 1115.083910 462.345853 1149.295798 507.091467 C1206.240621 485.935839 1258.695883 452.781866 1302.240068 410.424135 C1305.999477 406.767154 1310.253294 402.794345 1315.497406 402.717163 C1319.252462 402.661921 1322.696419 404.656736 1325.893660 406.626790 C1372.463219 435.321719 1413.900223 472.319464 1447.666564 515.353833 C1458.541562 529.213752 1480.586402 516.954856 1492.128506 503.645358 C1503.670609 490.335859 1521.474280 474.642018 1536.164281 484.366563 C1541.917449 488.175067 1544.834972 494.917006 1547.867437 501.114409 C1569.655925 545.643204 1610.500052 577.278864 1649.967390 607.276880 C1691.273527 638.672516 1732.579663 670.068151 1773.885800 701.463787 C1773.379061 710.623153 1759.020512 707.994627 1751.653951 702.527951 C1694.860969 660.382253 1638.067986 618.236555 1581.275004 576.090857 C1576.677851 617.150432 1513.187186 628.356724 1504.188191 668.680918 C1500.074283 687.115200 1506.107190 712.434882 1488.984300 720.406937 C1476.119373 675.575715 1501.194013 623.092117 1544.153860 604.931821 C1563.546822 596.733889 1569.557515 570.488287 1562.417140 550.681517 C1555.276766 530.874747 1538.823017 516.128622 1522.982715 502.258585 C1498.022684 504.918701 1484.537591 544.147326 1460.134626 538.267308 C1453.846444 536.752140 1448.753527 532.285632 1443.936991 527.968466 C1404.289533 492.431563 1364.642072 456.894662 1324.994612 421.357762 C1290.281363 468.414664 1348.257290 543.476980 1314.066999 590.915211 C1297.123086 614.424498 1301.279746 646.820845 1309.247669 674.682916 C1317.215592 702.544987 1328.375947 731.137438 1323.032959 759.619630 C1284.693305 731.103764 1246.353650 702.587897 1208.013996 674.072031 C1191.721021 661.953813 1174.059930 647.573275 1171.677903 627.408003 C1161.958202 545.124934 1117.879989 467.445051 1052.228314 416.899690 C1071.873053 465.362961 1058.141621 525.416348 1019.387504 560.526502 C997.192670 580.634405 981.958663 608.285529 976.820061 637.790329 C962.916012 619.563214 970.886471 592.547598 984.978760 574.465625 C999.071050 556.383653 1018.492630 542.583486 1030.347768 522.961914 C1052.426599 486.418995 1043.228889 439.852939 1033.341010 398.318741 C1007.409850 407.881181 977.622970 400.022033 954.689462 384.597392 C931.755954 369.172752 914.334464 347.023669 897.310911 325.250659 C891.571757 368.160897 884.913651 413.329032 858.183002 447.383382 M804.319798 553.463195 C725.145840 561.852883 645.766175 568.301228 566.276180 572.800482 C560.892007 573.105233 560.047108 581.774042 564.235101 585.171527 C568.423093 588.569012 574.431898 588.109185 579.789674 587.495655 C653.045566 579.106941 726.782540 574.921253 800.517156 574.966030 C805.677423 574.969164 810.542342 570.891605 811.440960 565.810183 C812.339578 560.728761 809.168167 555.230026 804.319799 553.463195 M1160.238492 526.772909 C1165.793350 527.976703 1166.607676 535.704848 1170.750483 539.596212 C1174.551598 543.166624 1180.446006 542.907769 1185.635848 542.396051 C1206.058431 540.382386 1226.437566 537.928083 1246.754290 535.035427 C1255.586454 533.777921 1264.406591 532.437618 1273.226574 531.097339 C1280.184864 530.039962 1287.143154 528.982584 1294.101444 527.925206 C1298.063994 527.323059 1303.217541 525.146238 1302.407104 521.220989 C1301.903506 518.781878 1299.106714 517.314793 1298.638091 514.868721 C1298.339500 513.310176 1299.068958 511.748555 1299.166210 510.164648 C1299.263461 508.580741 1298.138426 506.628467 1296.591126 506.980721 C1280.947130 510.542218 1264.997672 512.551012 1249.078971 514.554458 C1225.533149 517.517813 1201.987328 520.481169 1178.441507 523.444525 C1175.914659 523.762541 1173.313149 524.076251 1170.851119 523.424712 C1167.901519 522.644143 1165.228287 520.504168 1162.186449 520.742187 C1159.144611 520.980206 1157.256573 526.126697 1160.238492 526.772909 M676.047913 599.657949 C685.738190 601.463974 694.500913 607.740835 699.329066 616.334561 C702.035799 621.152334 708.871220 621.099513 714.354380 620.412272 C719.488365 619.768792 724.622349 619.125315 729.756334 618.481837 C742.637007 616.867413 755.517680 615.252990 768.398354 613.638566 C777.676685 612.475649 786.955015 611.312732 796.233346 610.149815 C799.423844 609.749928 802.821711 609.260359 805.238905 607.139898 C806.626751 605.922418 807.553698 604.275167 808.418634 602.644139 C809.892285 599.865243 811.303572 596.825753 810.918868 593.703910 C810.534163 590.582067 807.585236 587.586432 804.528180 588.326914 C790.487274 591.727912 775.931153 592.993419 761.513983 592.066563 C736.766987 590.475618 711.893102 599.770858 687.438503 595.657772 C682.935562 594.900410 676.402821 595.105574 676.047914 599.657949 M665.337210 548.482447 C676.926439 549.674772 688.617557 548.833727 700.237505 547.991904 C705.786936 547.589868 711.336367 547.187831 716.885799 546.785795 C724.947644 546.201743 733.073117 545.606933 740.858459 543.433704 C743.849124 542.598878 746.992254 542.536690 750.095688 542.438148 C763.407298 542.015471 776.694400 540.822230 789.868325 538.866389 C795.866194 537.975927 803.126074 535.727039 804.183584 529.756358 C804.591769 527.451754 803.900984 525.110018 803.217618 522.871530 C801.888489 518.517724 798.821316 513.116878 794.427554 514.307284 C780.517981 518.075821 766.153216 519.822219 751.847020 521.557401 C737.691866 523.274263 723.536712 524.991126 709.381558 526.707988 C705.760165 527.147223 701.965282 527.566778 698.564223 526.247605 C696.534936 525.460501 694.362416 526.830845 692.617765 528.132278 C683.524248 534.915672 674.430729 541.699059 665.337210 548.482447 M1192.252377 576.465458 C1208.901733 574.235993 1225.515863 571.743465 1242.086475 568.989120 C1251.112775 567.488780 1260.125963 565.910795 1269.139017 564.332832 C1277.464567 562.875234 1285.790116 561.417637 1294.115666 559.960039 C1296.463553 559.548982 1298.812489 559.137718 1301.138296 558.616024 C1304.925569 557.766516 1308.895851 556.461095 1311.283897 553.401302 C1313.671944 550.341510 1313.501608 545.065391 1310.058015 543.274646 C1308.196656 542.306697 1305.961929 542.571973 1303.884060 542.861872 C1289.324484 544.893187 1274.764908 546.924501 1260.205333 548.955816 C1251.331551 550.193863 1242.457770 551.431910 1233.583988 552.669957 C1230.922102 553.041336 1228.260216 553.412716 1225.598330 553.784095 C1211.755976 555.715344 1197.913623 557.646594 1184.071273 559.577869 C1182.751789 559.761963 1181.389206 559.961116 1180.255843 560.661413 C1177.279491 562.500478 1177.183734 566.716739 1177.435851 570.206334 C1177.653706 573.221740 1180.342941 575.595586 1183.250400 576.424326 C1186.157859 577.253067 1189.255856 576.866715 1192.252375 576.465460 M1308.153157 576.218019 C1299.645002 575.038789 1291.019774 576.550427 1282.563539 578.057533 C1275.026765 579.400772 1267.489992 580.744010 1259.953218 582.087247 C1253.654848 583.209771 1247.356478 584.332294 1241.058108 585.454818 C1225.723346 588.187847 1210.295027 590.395909 1194.809261 592.073835 C1192.194255 592.357178 1189.515440 592.642679 1187.152085 593.797276 C1182.414324 596.111871 1179.817456 602.084491 1181.355959 607.127976 C1181.762533 608.460804 1182.526512 609.815658 1183.824901 610.321542 C1184.731466 610.674761 1185.744556 610.555088 1186.709204 610.428293 C1220.386033 606.001747 1253.767350 599.328344 1286.557631 590.467164 C1288.707987 589.886056 1290.673717 592.390019 1292.886398 592.133578 C1294.167833 591.985068 1295.141472 590.952855 1295.995355 589.985893 C1300.047955 585.396601 1304.100556 580.807310 1308.153157 576.218019 M814.141213 420.862569 C818.972944 417.135100 827.151266 421.631034 831.657794 417.516322 C834.560848 414.865671 839.185182 416.955289 843.086672 416.473574 C848.245880 415.836569 852.807884 410.512599 857.712780 412.234572 C860.731518 413.294368 863.745280 410.241361 864.553087 407.145656 C865.360894 404.049951 864.930165 400.703486 865.953921 397.672337 C866.770804 395.253704 868.464528 393.196243 869.209283 390.754435 C869.954037 388.312628 869.246856 385.041136 866.800608 384.311098 C865.239973 383.845355 863.602631 384.585872 862.131725 385.285111 C851.013966 390.570266 839.307581 394.492010 827.634466 398.400443 C822.877384 399.993226 818.120302 401.586009 813.363220 403.178792 C811.265867 403.881035 808.659861 404.479863 807.082912 402.928970 C805.714004 401.582679 803.433673 402.742445 801.966831 403.981307 C796.013544 409.009324 790.971779 415.113311 787.158794 421.909171 C786.476155 423.125834 785.895996 424.821134 786.923499 425.764797 C787.640048 426.422879 788.751877 426.301051 789.710960 426.137724 C795.712785 425.115644 801.714610 424.093563 807.716435 423.071482 C809.972760 422.687242 812.329000 422.260611 814.141213 420.862569 M1275.757783 494.194461 C1282.310253 494.044305 1288.727787 492.414883 1295.078639 490.794976 C1295.955452 490.571328 1296.881966 490.319318 1297.503032 489.661217 C1298.005744 489.128526 1298.236930 488.402017 1298.448585 487.700817 C1299.456431 484.361904 1300.361835 480.754136 1299.271218 477.441336 C1298.180601 474.128535 1294.269752 471.528543 1291.145932 473.079620 C1287.306430 474.986056 1283.082079 475.956108 1278.902878 476.910339 C1271.809843 478.529878 1264.716808 480.149419 1257.623773 481.768960 C1252.898109 482.847963 1247.927895 483.923186 1243.268624 482.586268 C1240.454280 481.778728 1237.846289 480.109177 1234.921570 479.972513 C1231.873351 479.830078 1229.030775 481.374330 1226.372188 482.872276 C1218.167309 487.495206 1209.962430 492.118137 1201.757551 496.741067 C1198.861503 498.372807 1195.638154 500.470792 1195.234970 503.770354 C1197.950305 506.176588 1202.126510 505.935783 1205.568626 504.789118 C1209.010741 503.642454 1212.229516 501.737347 1215.817322 501.198229 C1221.389240 500.360969 1227.527982 502.852356 1232.495367 500.192966 C1242.376958 494.902659 1255.815406 501.833456 1265.312396 495.880274 C1268.342025 493.981154 1272.183066 494.276379 1275.757783 494.194461 M850.460935 429.773854 C849.737148 429.574927 848.970885 429.781491 848.249016 429.987266 C843.451386 431.354877 838.653755 432.722486 833.856124 434.090095 C832.225745 434.554851 830.584062 435.021778 828.896119 435.179844 C825.080259 435.537177 820.800297 434.406519 817.683767 436.637151 C815.151508 438.449596 811.944305 438.964842 808.865163 439.429784 C802.354149 440.412928 795.843136 441.396072 789.332123 442.379216 C784.732170 443.073796 780.340013 444.728038 775.987920 446.371600 C775.158344 446.684889 774.310625 447.008688 773.635518 447.583647 C772.900276 448.209822 772.428725 449.083036 771.973961 449.935014 C769.901724 453.817244 767.829487 457.699474 765.757250 461.581703 C765.382877 462.283070 764.999634 463.016094 764.972314 463.810652 C764.862833 466.994777 769.527607 467.469948 772.635469 466.768641 C776.766253 465.836500 780.897035 464.904363 785.027818 463.972227 C790.213334 462.802082 795.398851 461.631938 800.584367 460.461794 C804.484372 459.581734 808.384376 458.701673 812.284380 457.821613 C816.476548 456.875624 820.744833 455.900214 824.451848 453.725999 C826.488956 452.531208 829.131122 453.786565 831.425257 453.225956 C832.959200 452.851111 834.169662 451.708528 835.303541 450.609526 C840.051540 446.007573 844.799538 441.405620 849.547536 436.803668 C850.586010 435.797137 851.666044 434.722913 852.058923 433.331087 C852.451803 431.939262 851.855439 430.157121 850.460936 429.773854 M813.046531 472.247961 C809.848432 474.742918 805.735019 475.666798 801.770244 476.523069 C795.685698 477.837141 789.601153 479.151216 783.516609 480.465290 C776.852042 481.904631 770.187475 483.343973 763.522908 484.783314 C760.575505 485.419862 757.617503 486.058004 754.611634 486.297026 C753.188588 486.410184 751.646213 486.474461 750.542381 487.379680 C741.871116 494.490715 732.212655 500.396246 721.931094 504.873653 C720.369193 505.553829 722.210155 507.808456 723.879405 508.148723 C734.668899 510.348084 745.551924 504.345219 756.551003 504.865406 C761.043299 505.077863 766.188042 506.186545 769.541645 503.190012 C774.159268 499.064045 781.753170 502.942860 787.543197 500.747038 C789.126546 500.146566 790.538870 499.094778 792.191791 498.726799 C793.767253 498.376065 795.415257 498.680216 797.019552 498.503212 C802.276430 497.923215 805.547079 492.602351 807.573627 487.717246 C809.600176 482.832140 811.631117 477.290961 816.392902 474.989536 C815.277446 474.075678 814.161988 473.161820 813.046531 472.247961 M747.778949 632.081858 C740.112610 635.616325 730.560426 631.029059 722.838548 634.440483 C720.738789 635.368129 718.843601 636.868341 716.577263 637.233348 C714.694925 637.536510 712.771534 637.014395 710.869649 637.148326 C708.967764 637.282257 706.845232 638.478356 706.784883 640.383996 C706.714032 642.621263 709.437272 644.058137 709.748469 646.274788 C710.160665 649.210856 712.962475 651.349730 715.867335 651.943180 C718.772195 652.536630 721.772739 651.914014 724.666891 651.270371 C732.466284 649.535824 740.370989 647.624154 748.343848 648.146356 C751.763710 648.370348 755.501744 648.968536 758.370619 647.093654 C764.211159 643.276715 772.058010 646.348220 778.899440 644.978634 C785.338178 643.689665 790.247834 638.626743 794.718950 633.817595 C796.356275 632.056483 797.993599 630.295370 799.630924 628.534258 C795.079787 625.481991 788.806636 625.223196 784.019553 627.890222 C773.259058 633.885212 758.965143 626.924607 747.778949 632.081858 M1193.137856 626.719968 C1191.933027 627.102078 1190.698182 627.523414 1189.751779 628.361236 C1187.710278 630.168514 1187.636481 633.487444 1188.906793 635.899972 C1190.177105 638.312500 1192.478660 639.994300 1194.788540 641.442900 C1195.393848 639.254910 1198.008797 638.314838 1200.278209 638.255966 C1202.547620 638.197093 1204.906404 638.662858 1207.035274 637.874438 C1208.696444 637.259229 1210.003797 635.949288 1211.584873 635.150434 C1217.313368 632.256059 1225.131936 636.582192 1230.335075 632.824477 C1232.181787 631.490779 1234.641759 631.528272 1236.918851 631.465416 C1244.670374 631.251448 1252.249399 629.260097 1259.747046 627.280907 C1264.991366 625.896538 1270.235686 624.512169 1275.480006 623.127801 C1278.105589 622.434712 1280.816242 621.699742 1282.933100 619.998868 C1285.049958 618.297994 1286.418060 615.349972 1285.455350 612.810829 C1284.092398 609.216049 1279.159597 608.540997 1275.485512 609.672892 C1271.811428 610.804788 1268.461002 613.122990 1264.628060 613.420715 C1260.972098 613.704694 1256.712349 612.262572 1253.985601 614.714418 C1250.650155 617.713596 1245.307617 615.436511 1240.945141 616.480103 C1238.710062 617.014778 1236.789773 618.426084 1234.633943 619.222236 C1232.331440 620.072556 1229.835926 620.196706 1227.387506 620.369341 C1220.997763 620.819872 1214.635515 621.660011 1208.347848 622.883540 C1203.212502 623.882836 1198.124735 625.138383 1193.137856 626.719968 M567.778114 538.138390 C565.044070 537.001079 561.828236 539.062964 560.634816 541.772986 C559.441396 544.483009 559.720085 547.584234 560.021332 550.530032 C560.185765 552.137972 560.417074 553.889108 561.582793 555.008755 C562.847156 556.223147 564.788171 556.298640 566.541268 556.302239 C576.776271 556.323247 587.011274 556.344255 597.246277 556.365264 C600.401920 556.371741 603.857026 556.273032 606.246572 554.211917 C609.344489 551.539785 614.001256 552.307288 618.029799 553.020174 C622.058342 553.733061 626.949940 553.917556 629.425338 550.660292 C620.403223 546.844126 612.056985 541.436285 604.887291 534.761171 C602.871493 532.884427 600.380717 530.743935 597.722781 531.465728 C596.054070 531.918885 594.862865 533.418285 593.254084 534.052141 C590.766298 535.032323 587.999390 533.750944 585.325473 533.748521 C579.138156 533.742911 573.490875 540.514791 567.778113 538.138390 M731.159312 666.119547 C727.935553 668.147286 723.791280 667.336949 719.989084 667.118669 C716.186888 666.900390 711.546171 667.967679 710.399952 671.599555 C709.351118 674.922857 711.498951 679.595047 708.547203 681.447498 C706.289916 682.864120 708.664306 686.705438 711.329155 686.678195 C713.994004 686.650952 716.180272 684.686923 718.582198 683.532404 C723.923832 680.964871 730.201672 682.454519 736.123056 682.704488 C746.551675 683.144729 757.097952 679.347167 764.851938 672.359634 C768.430973 669.134373 772.010008 665.909111 775.589044 662.683850 C772.805888 659.945361 768.329050 659.856674 764.551147 660.842943 C760.773244 661.829212 757.235543 663.697296 753.380984 664.319912 C745.937565 665.522230 737.541637 662.105075 731.159312 666.119547 M1258.983669 643.569079 C1253.701029 644.714484 1248.418389 645.859888 1243.135749 647.005293 C1239.734035 647.742868 1236.328211 648.481494 1232.994383 649.482125 C1228.671527 650.779607 1224.024219 649.900667 1219.523778 650.242091 C1215.023336 650.583515 1209.975439 652.903240 1209.146119 657.339767 C1212.888597 657.612456 1216.449249 659.748807 1218.451075 662.922637 C1219.441593 664.493070 1221.771553 664.224270 1223.569950 663.762584 C1229.916903 662.133181 1236.263856 660.503781 1242.610808 658.874380 C1247.633391 657.584975 1252.655974 656.295569 1257.678557 655.006163 C1262.429822 653.786411 1267.181088 652.566658 1271.932353 651.346905 C1276.067544 650.285312 1280.232678 649.213018 1284.087347 647.377721 C1286.012379 646.461169 1287.960609 645.237270 1288.825193 643.288344 C1289.689776 641.339419 1288.902568 638.559989 1286.835352 638.038035 C1286.023181 637.832969 1285.168722 637.995666 1284.347470 638.160647 C1278.632777 639.308677 1272.936011 640.543872 1267.239511 641.779012 C1264.487563 642.375701 1261.735616 642.972390 1258.983669 643.569079 M1292.165663 666.537870 C1292.494273 664.446842 1289.439737 663.761554 1287.342749 664.049698 C1279.473254 665.131040 1271.773016 667.177678 1264.096475 669.219483 C1261.912895 669.800271 1259.729315 670.381059 1257.545735 670.961847 C1253.436004 672.054952 1249.326272 673.148058 1245.216541 674.241163 C1243.250602 674.764063 1240.963850 675.594825 1240.460023 677.565738 C1244.624833 683.103559 1249.723471 689.156546 1256.647112 689.432673 C1260.648911 689.592272 1264.407224 687.727322 1268.132284 686.256337 C1273.115018 684.288709 1278.325972 682.971452 1283.520026 681.659583 C1287.858608 680.563781 1292.197190 679.467980 1296.535772 678.372179 C1293.197085 675.517337 1291.483689 670.877440 1292.165663 666.537870 M874.439111 350.837526 C873.595165 350.466308 872.630175 350.871111 871.797214 351.266363 C861.283094 356.255472 850.419941 360.508851 839.313475 363.985104 C838.268942 364.312037 837.203556 364.641039 836.304332 365.265002 C835.527959 365.803722 834.911698 366.537675 834.305345 367.262458 C831.212609 370.959260 828.119871 374.656062 825.027134 378.352864 C824.385881 379.119365 823.712496 379.965752 823.675882 380.964445 C823.639267 381.963139 824.620635 383.024932 825.551426 382.661120 C839.470533 377.220658 853.636597 372.412067 867.991385 368.255116 C874.303387 366.427245 878.142696 358.671323 875.768757 352.543770 C875.501169 351.853074 875.117138 351.135763 874.439113 350.837525 M734.336453 698.344116 C729.317301 697.313318 723.921026 698.248364 719.541298 700.907765 C716.715248 702.623762 713.132941 701.943606 709.834629 701.714832 C706.536318 701.486058 702.554372 702.205780 701.254861 705.245923 C699.097912 710.291998 696.940964 715.338073 694.784015 720.384149 C693.836637 722.600494 693.097165 725.646880 695.072525 727.028064 C696.806896 728.240748 699.153374 727.056720 700.914365 725.883026 C712.552573 718.126207 724.190780 710.369389 735.828987 702.612571 C736.391264 702.237816 736.992446 701.812225 737.185958 701.164806 C737.618653 699.717170 735.816482 698.648073 734.336454 698.344115 M1302.708938 713.306977 C1300.615514 708.026987 1304.057646 700.809734 1299.882937 696.958432 C1297.014239 694.311968 1292.476409 695.270319 1288.738193 696.392344 C1285.816703 697.269229 1282.895212 698.146114 1279.973722 699.022999 C1279.290414 699.228093 1278.586721 699.443885 1278.038362 699.900257 C1275.544839 701.975494 1278.355732 705.839525 1281.001298 707.717088 C1288.843615 713.282787 1296.685931 718.848488 1304.528246 724.414189 C1306.436043 723.498905 1306.653532 720.771052 1305.834757 718.819888 C1305.015983 716.868724 1303.488832 715.274005 1302.708941 713.306976 M1295.026200 441.333171 C1291.702682 448.086336 1285.601185 453.419396 1278.464052 455.809445 C1276.616114 456.428274 1276.861776 459.476412 1278.551071 460.448063 C1280.240366 461.419713 1282.400424 460.848218 1284.123379 459.937588 C1285.846335 459.026958 1287.447668 457.785454 1289.355232 457.386679 C1291.227186 456.995347 1293.179047 457.465804 1295.078088 457.239988 C1296.977130 457.014173 1299.044148 455.613530 1298.856216 453.710366 C1298.354211 448.626643 1299.874862 443.370975 1303.013862 439.340723 C1304.451564 437.494820 1301.344901 434.978134 1299.189684 435.888839 C1297.034468 436.799543 1296.059342 439.233894 1295.026199 441.333170 M567.803128 505.918721 C566.942625 507.806504 566.082122 509.694288 565.221618 511.582071 C564.250662 513.712163 563.257224 516.049855 563.822774 518.321463 C564.727541 521.955574 569.327419 523.538060 572.962911 522.638860 C576.598403 521.739661 579.522538 519.140786 582.499425 516.868451 C579.122445 513.210082 575.745464 509.551712 572.368483 505.893342 C571.429658 504.876289 569.995557 503.775033 568.819311 504.504577 C568.318372 504.815279 568.047620 505.382347 567.803126 505.918720 M882.260245 323.160760 C882.918185 321.623421 883.588079 319.929591 883.118207 318.324750 C882.648335 316.719909 880.431388 315.616781 879.244541 316.794783 C873.704353 322.293694 868.164167 327.792604 862.623980 333.291513 C861.908205 334.001956 861.144459 334.818468 861.120545 335.826681 C861.068090 338.038178 864.379695 338.602138 866.306301 337.515095 C868.232906 336.428051 869.785520 334.483205 871.981045 334.212757 C873.698784 334.001164 875.626450 334.856646 877.076947 333.912477 C877.856726 333.404897 878.263341 332.499900 878.629421 331.644519 C879.839696 328.816599 881.049970 325.988679 882.260244 323.160759 z"/></svg>